# xmcd
#
# Track frame offsets:
#	150
#	13041
#	25278
#	35435
#	45145
#	56719
#	72295
#	87157
#	98916
#	109487
#	120226
#	134788
#	147384
#	164529
#
# Disc length: 2426 seconds
#
# Revision: 1
# Processed by: cddbd v1.4PL0 Copyright (c) Steve Scherf et al.
# Submitted via: audiograbber 1.80.04
#
DISCID=c209780e
DTITLE=Don Williams - It Must Be Love
DYEAR=1900
DGENRE=Country
TTITLE0=Where Do We Go From Here?
TTITLE1=You're My Best Friend
TTITLE2=Turn Out The Lights (And Love Me Tonight)
TTITLE3=Take My Hand For A While
TTITLE4=Some Broken Hearts Never Mend
TTITLE5=I've Been Loved By The Best
TTITLE6=Till The Rivers All Run Dry
TTITLE7=On Her Way To Being A Woman
TTITLE8=It Must Be Love
TTITLE9=Spend Some Time With Me
TTITLE10=All I'm Missing Is You
TTITLE11=Amanda
TTITLE12=I Believe In You
TTITLE13=Good Ole Boys Like Me
EXTD=
EXTT0=
EXTT1=
EXTT2=
EXTT3=
EXTT4=
EXTT5=
EXTT6=
EXTT7=
EXTT8=
EXTT9=
EXTT10=
EXTT11=
EXTT12=
EXTT13=
PLAYORDER=
